<?xml version="1.0" standalone="no"?>
<!DOCTYPE svg PUBLIC "-//W3C//DTD SVG 20010904//EN"
 "http://www.w3.org/TR/2001/REC-SVG-20010904/DTD/svg10.dtd">
<svg version="1.0" xmlns="http://www.w3.org/2000/svg"
 width="370.000000pt" height="440.000000pt" viewBox="0 0 370.000000 440.000000"
 preserveAspectRatio="xMidYMid meet">
<metadata>
Created by potrace 1.15, written by Peter Selinger 2001-2017
</metadata>
<g transform="translate(0.000000,440.000000) scale(0.100000,-0.100000)"
fill="#ffffff" stroke="none">
<path d="M732 4221 c-127 -47 -210 -125 -271 -251 -32 -67 -36 -84 -36 -156 0
-72 4 -87 35 -149 40 -79 136 -187 191 -215 46 -24 107 -34 136 -23 12 4 66
51 120 104 134 131 282 230 463 312 78 36 191 67 300 83 390 57 778 -83 1107
-401 57 -55 110 -97 126 -100 125 -28 312 156 345 341 27 156 -82 348 -243
427 -187 93 -361 43 -484 -139 -28 -42 -51 -80 -51 -85 0 -5 -37 11 -82 35
-93 49 -269 109 -368 125 -93 15 -296 13 -382 -3 -40 -8 -127 -33 -193 -56
-108 -38 -140 -52 -211 -97 -20 -13 -24 -10 -54 43 -45 81 -115 151 -185 187
-79 40 -184 47 -263 18z"/>
<path d="M1222 3429 c-99 -22 -274 -105 -386 -183 -217 -151 -389 -340 -483
-531 -83 -167 -113 -275 -113 -409 0 -127 15 -190 76 -313 83 -169 172 -257
291 -288 68 -18 118 -13 184 20 69 35 110 89 184 239 37 75 71 139 77 142 5 3
22 -5 36 -18 80 -72 184 -122 349 -168 86 -24 129 -30 180 -28 60 3 68 5 71
24 3 23 -35 52 -128 97 -165 80 -292 191 -328 290 -12 32 -22 69 -22 84 0 57
112 223 254 376 119 129 157 179 202 271 70 144 68 245 -7 330 -33 37 -53 50
-106 66 -83 26 -216 25 -331 -1z"/>
<path d="M2146 3439 c-87 -21 -156 -84 -177 -163 -22 -81 11 -205 86 -322 30
-47 193 -238 234 -274 25 -22 97 -122 128 -177 53 -95 54 -97 47 -138 -23
-140 -111 -225 -393 -376 -69 -38 -88 -57 -78 -83 17 -44 279 5 442 84 44 22
104 58 134 80 29 23 54 40 56 38 1 -2 15 -25 30 -53 15 -27 31 -55 35 -60 5
-6 18 -34 30 -64 129 -329 462 -308 633 39 104 211 113 373 34 605 -37 109
-88 202 -170 310 -106 141 -217 251 -319 321 -24 16 -59 41 -78 56 -65 49
-260 139 -358 164 -100 25 -238 31 -316 13z"/>
<path d="M1785 2883 c-45 -6 -138 -34 -152 -45 -7 -6 -13 -29 -13 -53 0 -55
31 -101 95 -142 82 -51 108 -79 96 -102 -15 -28 -56 -33 -143 -18 -76 14 -78
14 -78 -6 0 -26 83 -107 135 -131 90 -43 193 -30 283 36 46 35 94 100 81 112
-2 3 -38 -2 -79 -10 -96 -18 -103 -18 -131 5 -22 18 -22 20 -6 44 9 14 41 39
72 57 73 42 107 87 113 150 l5 50 -44 19 c-24 11 -73 25 -109 30 -66 11 -71
11 -125 4z"/>
<path d="M669 1616 c-78 -17 -134 -43 -202 -97 -61 -49 -77 -69 -115 -144
-114 -224 -57 -545 138 -787 102 -127 180 -190 318 -261 116 -60 194 -80 317
-81 237 -1 403 116 478 338 l13 39 223 -1 223 0 22 -64 c73 -216 296 -342 546
-308 331 45 649 342 730 680 24 104 27 260 5 345 -43 163 -173 297 -325 333
-123 29 -248 23 -374 -20 -94 -31 -233 -119 -323 -205 -155 -147 -247 -319
-289 -539 -3 -18 -13 -22 -71 -27 -83 -8 -229 -7 -302 1 l-54 7 -13 65 c-37
181 -134 349 -285 496 -193 185 -447 274 -660 230z m172 -285 c75 -28 203
-119 252 -178 108 -130 167 -253 187 -389 21 -142 -11 -245 -93 -301 -87 -58
-169 -54 -325 18 -235 108 -419 426 -388 670 10 80 58 157 116 187 39 20 55
23 120 19 41 -3 100 -15 131 -26z m2232 15 c52 -19 72 -39 104 -104 50 -102
34 -270 -42 -430 -43 -91 -71 -129 -160 -218 -119 -119 -306 -194 -412 -165
-52 13 -105 49 -129 86 -50 77 -54 220 -10 361 65 204 252 406 426 459 30 9
60 18 65 20 26 9 124 3 158 -9z"/>
</g>
</svg>
