
<svg width="24px" height="25px" viewBox="0 0 24 25" version="1.1" xmlns="http://www.w3.org/2000/svg" xmlns:xlink="http://www.w3.org/1999/xlink">
    <g id="Page-1" stroke="none" stroke-width="1" fill="none" fill-rule="evenodd">
        <g id="60-iPhone-7-and-Airpods-Icons" transform="translate(-38.000000, -341.000000)" fill="#010202">
            <g id="Group-33" transform="translate(38.000000, 341.000000)">
                <path d="M13,23.088 C13,23.915 13.673,24.588 14.5,24.588 L15.5,24.588 C16.327,24.588 17,23.915 17,23.088 L17,22.588 L13,22.588 L13,23.088 Z" id="Fill-246"></path>
                <path d="M20.75,6.588 C20.336,6.588 20,6.251 20,5.838 C20,5.425 20.336,5.088 20.75,5.088 C21.164,5.088 21.5,5.425 21.5,5.838 C21.5,6.251 21.164,6.588 20.75,6.588 M17.704,3.857 C17.033,4.152 16.508,4.662 16.225,5.292 C16.141,5.478 15.959,5.587 15.768,5.587 C15.7,5.587 15.63,5.573 15.563,5.543 C15.312,5.43 15.199,5.134 15.313,4.882 C15.697,4.026 16.403,3.338 17.3,2.942 C17.553,2.83 17.849,2.946 17.959,3.197 C18.071,3.45 17.957,3.745 17.704,3.857 M23.896,2.913 C22.77,1.457 20.94,0.588 19,0.588 C15.691,0.588 13,3.056 13,6.088 L13,21.588 L17,21.588 L17,10.588 C17,9.485 17.897,8.588 19,8.588 C19.276,8.588 19.5,8.812 19.5,9.088 C19.5,9.364 19.276,9.588 19,9.588 C18.449,9.588 18,10.036 18,10.588 L18,11.51 C18.328,11.561 18.662,11.588 19,11.588 C20.94,11.588 22.77,10.719 23.896,9.263 C23.963,9.175 24,9.067 24,8.957 L24,3.219 C24,3.109 23.963,3.001 23.896,2.913" id="Fill-247"></path>
                <path d="M7,23.088 C7,23.915 7.673,24.588 8.5,24.588 L9.5,24.588 C10.327,24.588 11,23.915 11,23.088 L11,22.588 L7,22.588 L7,23.088 Z" id="Fill-248"></path>
                <path d="M8.4365,5.5431 C8.3705,5.5731 8.3005,5.5871 8.2315,5.5871 C8.0405,5.5871 7.8585,5.4781 7.7755,5.2921 C7.4925,4.6621 6.9665,4.1521 6.2965,3.8561 C6.0435,3.7451 5.9295,3.4501 6.0405,3.1971 C6.1515,2.9461 6.4475,2.8301 6.6995,2.9421 C7.5965,3.3381 8.3025,4.0261 8.6875,4.8821 C8.8005,5.1341 8.6885,5.4301 8.4365,5.5431 M3.2495,6.5881 C2.8365,6.5881 2.4995,6.2511 2.4995,5.8381 C2.4995,5.4251 2.8365,5.0881 3.2495,5.0881 C3.6635,5.0881 3.9995,5.4251 3.9995,5.8381 C3.9995,6.2511 3.6635,6.5881 3.2495,6.5881 M4.9995,0.5881 C3.0605,0.5881 1.2295,1.4571 0.1045,2.9131 C0.0365,3.0011 -0.0005,3.1081 -0.0005,3.2191 L-0.0005,8.9571 C-0.0005,9.0671 0.0365,9.1751 0.1045,9.2631 C1.2295,10.7191 3.0605,11.5881 4.9995,11.5881 C5.3385,11.5881 5.6715,11.5611 5.9995,11.5101 L5.9995,10.5881 C5.9995,10.0361 5.5515,9.5881 4.9995,9.5881 C4.7235,9.5881 4.4995,9.3641 4.4995,9.0881 C4.4995,8.8121 4.7235,8.5881 4.9995,8.5881 C6.1035,8.5881 6.9995,9.4851 6.9995,10.5881 L6.9995,21.5881 L10.9995,21.5881 L10.9995,6.0881 C10.9995,3.0561 8.3085,0.5881 4.9995,0.5881" id="Fill-249"></path>
            </g>
        </g>
    </g>
</svg>
