
<svg width="23px" height="25px" viewBox="0 0 23 25" version="1.1" xmlns="http://www.w3.org/2000/svg" xmlns:xlink="http://www.w3.org/1999/xlink">
    <g id="Page-1" stroke="none" stroke-width="1" fill="none" fill-rule="evenodd">
        <g id="Group-59" fill="#010202">
            <path d="M5.5,6.588 C5.225,6.588 5,6.363 5,6.088 C5,5.813 5.225,5.588 5.5,5.588 C5.775,5.588 6,5.813 6,6.088 C6,6.363 5.775,6.588 5.5,6.588 M5.5,4.588 C4.673,4.588 4,5.261 4,6.088 C4,6.915 4.673,7.588 5.5,7.588 C6.327,7.588 7,6.915 7,6.088 C7,5.261 6.327,4.588 5.5,4.588" id="Fill-277"></path>
            <path d="M9,6.088 C9,5.813 9.225,5.588 9.5,5.588 C9.775,5.588 10,5.813 10,6.088 C10,6.363 9.775,6.588 9.5,6.588 C9.225,6.588 9,6.363 9,6.088 M11,6.088 C11,5.261 10.327,4.588 9.5,4.588 C8.673,4.588 8,5.261 8,6.088 C8,6.915 8.673,7.588 9.5,7.588 C10.327,7.588 11,6.915 11,6.088" id="Fill-278"></path>
            <path d="M15,7.088 C14.448,7.088 14,6.64 14,6.088 C14,5.536 14.448,5.088 15,5.088 C15.552,5.088 16,5.536 16,6.088 C16,6.64 15.552,7.088 15,7.088 M13.572,20.761 C13.352,21.083 13.019,21.57 12.417,21.581 C12.16,21.587 11.965,21.507 11.83,21.449 C11.628,21.36 11.539,21.37 11.341,21.453 C11.218,21.506 11.048,21.578 10.813,21.588 L10.775,21.588 C10.186,21.588 9.824,21.066 9.606,20.751 C9.152,20.097 8.689,18.755 9.271,17.742 C9.574,17.217 10.127,16.885 10.714,16.875 C10.997,16.879 11.235,16.967 11.412,17.037 C11.468,17.059 11.518,17.082 11.562,17.091 C11.537,17.083 11.587,17.06 11.644,17.037 C11.853,16.955 12.171,16.824 12.523,16.867 C12.744,16.875 13.372,16.966 13.784,17.568 C13.86,17.681 13.889,17.82 13.86,17.953 C13.847,18.018 13.82,18.078 13.784,18.132 C13.339,18.233 13,18.612 13,19.088 C13,19.615 13.411,20.034 13.927,20.073 C13.865,20.24 13.752,20.498 13.572,20.761 M3,6.088 C3,4.707 4.119,3.588 5.5,3.588 L9.5,3.588 C10.881,3.588 12,4.707 12,6.088 C12,7.469 10.881,8.588 9.5,8.588 L5.5,8.588 C4.119,8.588 3,7.469 3,6.088 M12.805,15.283 C13,15.479 13,15.795 12.805,15.99 L12.354,16.442 C12.256,16.539 12.128,16.588 12,16.588 C11.872,16.588 11.744,16.539 11.646,16.442 C11.451,16.246 11.451,15.93 11.646,15.734 L12.098,15.283 C12.293,15.088 12.609,15.088 12.805,15.283 M19.5,0.588 L3.5,0.588 C1.57,0.588 0,2.158 0,4.088 L0,24.088 C0,24.364 0.224,24.588 0.5,24.588 L22.5,24.588 C22.776,24.588 23,24.364 23,24.088 L23,4.088 C23,2.158 21.43,0.588 19.5,0.588" id="Fill-279"></path>
        </g>
    </g>
</svg>
